<mxfile host="app.diagrams.net" modified="2021-06-17T07:02:30.999Z" agent="5.0 (Macintosh; Intel Mac OS X 10_15_7) AppleWebKit/537.36 (KHTML, like Gecko) Chrome/91.0.4472.101 Safari/537.36" etag="ObtS0rMixcvAxJkMt4z6" version="14.7.10" type="github">
  <diagram id="1q3It9NPTMJlwKApZCdY" name="Page-1">
    <mxGraphModel dx="1426" dy="867" grid="1" gridSize="10" guides="1" tooltips="1" connect="1" arrows="1" fold="1" page="1" pageScale="1" pageWidth="827" pageHeight="1169" math="0" shadow="0">
      <root>
        <mxCell id="0" />
        <mxCell id="1" parent="0" />
        <mxCell id="lfJO3IXpHbJuu5VI6wbt-1" value="GraphQL" style="rounded=1;whiteSpace=wrap;html=1;fillColor=#1ba1e2;strokeColor=#006EAF;fontColor=#ffffff;" vertex="1" parent="1">
          <mxGeometry x="150" y="160" width="120" height="60" as="geometry" />
        </mxCell>
        <mxCell id="lfJO3IXpHbJuu5VI6wbt-6" style="edgeStyle=orthogonalEdgeStyle;rounded=0;orthogonalLoop=1;jettySize=auto;html=1;exitX=0;exitY=0.5;exitDx=0;exitDy=0;entryX=1;entryY=0.5;entryDx=0;entryDy=0;startArrow=classicThin;startFill=1;" edge="1" parent="1" source="lfJO3IXpHbJuu5VI6wbt-2" target="lfJO3IXpHbJuu5VI6wbt-1">
          <mxGeometry relative="1" as="geometry" />
        </mxCell>
        <mxCell id="lfJO3IXpHbJuu5VI6wbt-2" value="ECMAScript" style="rounded=1;whiteSpace=wrap;html=1;fillColor=#1ba1e2;strokeColor=#006EAF;fontColor=#ffffff;" vertex="1" parent="1">
          <mxGeometry x="480" y="160" width="120" height="60" as="geometry" />
        </mxCell>
        <mxCell id="lfJO3IXpHbJuu5VI6wbt-3" value="Javascript" style="rounded=1;whiteSpace=wrap;html=1;fillColor=#1ba1e2;strokeColor=#006EAF;fontColor=#ffffff;" vertex="1" parent="1">
          <mxGeometry x="480" y="280" width="120" height="60" as="geometry" />
        </mxCell>
        <mxCell id="lfJO3IXpHbJuu5VI6wbt-7" style="edgeStyle=orthogonalEdgeStyle;rounded=0;orthogonalLoop=1;jettySize=auto;html=1;exitX=1;exitY=0.5;exitDx=0;exitDy=0;startArrow=classic;startFill=1;" edge="1" parent="1" source="lfJO3IXpHbJuu5VI6wbt-4" target="lfJO3IXpHbJuu5VI6wbt-3">
          <mxGeometry relative="1" as="geometry" />
        </mxCell>
        <mxCell id="lfJO3IXpHbJuu5VI6wbt-4" value="graphql-yoga" style="rounded=1;whiteSpace=wrap;html=1;fillColor=#1ba1e2;strokeColor=#006EAF;fontColor=#ffffff;" vertex="1" parent="1">
          <mxGeometry x="150" y="280" width="120" height="60" as="geometry" />
        </mxCell>
      </root>
    </mxGraphModel>
  </diagram>
</mxfile>
